<svg width="27" height="26" viewBox="0 0 27 26" fill="none" xmlns="http://www.w3.org/2000/svg">
<path d="M21.8334 7.42947C22.9385 7.42947 23.9983 7.86846 24.7797 8.64986C25.5611 9.43126 26.0001 10.4911 26.0001 11.5961C26.0001 12.7012 25.5611 13.761 24.7797 14.5424C23.9983 15.3238 22.9385 15.7628 21.8334 15.7628M10.7223 7.42947V22.7073C10.7223 23.0756 10.576 23.4289 10.3155 23.6893C10.0551 23.9498 9.7018 24.0961 9.33344 24.0961H7.94455C7.5762 24.0961 7.22293 23.9498 6.96246 23.6893C6.70199 23.4289 6.55566 23.0756 6.55566 22.7073V15.7628" stroke="#303030" stroke-width="2" stroke-linecap="round" stroke-linejoin="round"/>
<path d="M13.5 7.42948L19.7833 2.19337C19.9659 2.0413 20.188 1.94442 20.4237 1.91407C20.6594 1.88373 20.8988 1.92119 21.114 2.02205C21.3291 2.12292 21.511 2.28301 21.6384 2.48358C21.7659 2.68414 21.8335 2.91687 21.8333 3.15448V20.0378C21.8335 20.2754 21.7659 20.5082 21.6384 20.7087C21.511 20.9093 21.3291 21.0694 21.114 21.1702C20.8988 21.2711 20.6594 21.3086 20.4237 21.2782C20.188 21.2479 19.9659 21.151 19.7833 20.9989L13.5 15.7628H2.38889C2.02053 15.7628 1.66726 15.6165 1.4068 15.356C1.14633 15.0956 1 14.7423 1 14.3739V8.81837C1 8.45001 1.14633 8.09675 1.4068 7.83628C1.66726 7.57581 2.02053 7.42948 2.38889 7.42948H13.5Z" stroke="#303030" stroke-width="2" stroke-linecap="round" stroke-linejoin="round"/>
</svg>
