<svg width="20" height="21" viewBox="0 0 20 21" fill="none" xmlns="http://www.w3.org/2000/svg">
<path d="M10.0001 18.8334C11.0946 18.8348 12.1787 18.6199 13.1899 18.2011C14.2012 17.7822 15.1196 17.1676 15.8926 16.3926C16.6676 15.6196 17.2822 14.7012 17.7011 13.6899C18.1199 12.6787 18.3348 11.5946 18.3334 10.5001C18.3348 9.40554 18.1199 8.3215 17.701 7.31027C17.2821 6.29904 16.6676 5.38055 15.8926 4.60759C15.1196 3.8326 14.2012 3.218 13.1899 2.79912C12.1787 2.38024 11.0946 2.16534 10.0001 2.16676C8.90554 2.16536 7.8215 2.38028 6.81027 2.79916C5.79904 3.21804 4.88055 3.83262 4.10759 4.60759C3.33262 5.38055 2.71804 6.29904 2.29916 7.31027C1.88028 8.3215 1.66536 9.40554 1.66676 10.5001C1.66534 11.5946 1.88024 12.6787 2.29912 13.6899C2.718 14.7012 3.3326 15.6196 4.10759 16.3926C4.88055 17.1676 5.79904 17.7821 6.81027 18.201C7.8215 18.6199 8.90554 18.8348 10.0001 18.8334Z" stroke="#777777" stroke-width="1.66667" stroke-linejoin="round"/>
</svg>
