<svg width="51" height="51" viewBox="0 0 51 51" fill="none" xmlns="http://www.w3.org/2000/svg">
<rect x="0.5" y="0.875" width="50" height="50" rx="25" fill="white"/>
<path d="M36.4375 25.875C37.6807 25.875 38.873 26.3689 39.7521 27.2479C40.6311 28.127 41.125 29.3193 41.125 30.5625V32.125C41.125 38.2844 35.3125 44.625 25.5 44.625C15.6875 44.625 9.875 38.2844 9.875 32.125V30.5625C9.875 29.3193 10.3689 28.127 11.2479 27.2479C12.127 26.3689 13.3193 25.875 14.5625 25.875H36.4375ZM25.5 5.5625C27.7792 5.5625 29.9651 6.46791 31.5767 8.07955C33.1883 9.69119 34.0938 11.877 34.0938 14.1562C34.0938 16.4355 33.1883 18.6213 31.5767 20.2329C29.9651 21.8446 27.7792 22.75 25.5 22.75C23.2208 22.75 21.0349 21.8446 19.4233 20.2329C17.8117 18.6213 16.9062 16.4355 16.9062 14.1562C16.9062 11.877 17.8117 9.69119 19.4233 8.07955C21.0349 6.46791 23.2208 5.5625 25.5 5.5625Z" fill="#303030"/>
</svg>
