<svg width="21" height="21" viewBox="0 0 21 21" fill="none" xmlns="http://www.w3.org/2000/svg">
<path d="M19.125 0.375H2.25C1.75272 0.375 1.27581 0.572544 0.924175 0.924175C0.572544 1.27581 0.375 1.75272 0.375 2.25V19.125C0.375 19.6223 0.572544 20.0992 0.924175 20.4508C1.27581 20.8025 1.75272 21 2.25 21H19.125C19.6223 21 20.0992 20.8025 20.4508 20.4508C20.8025 20.0992 21 19.6223 21 19.125V2.25C21 1.75272 20.8025 1.27581 20.4508 0.924175C20.0992 0.572544 19.6223 0.375 19.125 0.375ZM2.25 2.25H10.6875V19.125H2.25V2.25Z" fill="#39A7FF"/>
</svg>
