<svg width="6" height="8" viewBox="0 0 6 8" fill="none" xmlns="http://www.w3.org/2000/svg">
<path d="M0 0.571429C0 0.465308 0.0310288 0.361283 0.0896095 0.271011C0.14819 0.180739 0.232009 0.107786 0.331672 0.0603275C0.431336 0.0128687 0.542906 -0.00722103 0.653883 0.00230924C0.76486 0.0118395 0.870859 0.0506132 0.96 0.114286L5.76 3.54286C5.83452 3.59608 5.895 3.6651 5.93666 3.74445C5.97831 3.8238 6 3.91129 6 4C6 4.08871 5.97831 4.1762 5.93666 4.25555C5.895 4.3349 5.83452 4.40392 5.76 4.45714L0.96 7.88571C0.870859 7.94939 0.76486 7.98816 0.653883 7.99769C0.542906 8.00722 0.431336 7.98713 0.331672 7.93967C0.232009 7.89221 0.14819 7.81926 0.0896095 7.72899C0.0310288 7.63872 0 7.53469 0 7.42857V0.571429Z" fill="#CCCCCC"/>
</svg>
