<svg width="17" height="27" viewBox="0 0 17 27" fill="none" xmlns="http://www.w3.org/2000/svg">
<path d="M12.83 12.9181V5.44555C12.83 2.70143 11.0601 0.789062 8.50606 0.789062C5.9515 0.789062 4.18156 2.70143 4.18156 5.44555V12.9181C4.18156 15.6501 5.95201 17.5746 8.50606 17.5746C11.0601 17.5746 12.83 15.6501 12.83 12.9181ZM11.0353 12.9181C11.0353 14.6759 10.0261 15.8047 8.50555 15.8047C6.98498 15.8047 5.97533 14.6759 5.97533 12.9181V5.44555C5.97533 3.68777 6.98498 2.559 8.50555 2.559C10.0261 2.559 11.0358 3.68777 11.0358 5.44555L11.0353 12.9181ZM3.19623 24.4172C3.07827 24.4173 2.9615 24.4408 2.85269 24.4864C2.74388 24.5319 2.64518 24.5986 2.56231 24.6826C2.47944 24.7665 2.41405 24.8661 2.36991 24.9755C2.32578 25.0849 2.30377 25.2019 2.30518 25.3199C2.30396 25.4372 2.32618 25.5536 2.37052 25.6623C2.41487 25.771 2.48046 25.8697 2.56345 25.9527C2.64643 26.0357 2.74515 26.1012 2.8538 26.1456C2.96246 26.1899 3.07888 26.2122 3.19623 26.2109H13.8164C13.9337 26.2122 14.0502 26.1899 14.1588 26.1456C14.2675 26.1012 14.3662 26.0357 14.4492 25.9527C14.5322 25.8697 14.5978 25.771 14.6421 25.6623C14.6864 25.5536 14.7087 25.4372 14.7074 25.3199C14.7088 25.202 14.6867 25.085 14.6426 24.9756C14.5984 24.8663 14.533 24.7668 14.4501 24.6829C14.3673 24.599 14.2686 24.5324 14.1598 24.4868C14.051 24.4413 13.9343 24.4178 13.8164 24.4177H9.39711V21.6492C13.935 21.2691 17 18.0141 17 13.3454V10.9343C17.0012 10.8169 16.979 10.7005 16.9346 10.5919C16.8903 10.4832 16.8247 10.3845 16.7417 10.3015C16.6587 10.2185 16.56 10.1529 16.4513 10.1086C16.3427 10.0642 16.2263 10.042 16.1089 10.0432C15.9909 10.0418 15.8738 10.0637 15.7643 10.1078C15.6549 10.1519 15.5553 10.2173 15.4713 10.3002C15.3872 10.3831 15.3205 10.4818 15.2749 10.5906C15.2293 10.6995 15.2058 10.8163 15.2057 10.9343V13.2744C15.2057 17.3252 12.5685 20.0101 8.50606 20.0101C4.4431 20.0101 1.79427 17.3252 1.79427 13.2739V10.9343C1.79549 10.8169 1.77328 10.7005 1.72893 10.5919C1.68458 10.4832 1.61899 10.3845 1.53601 10.3015C1.45302 10.2185 1.35431 10.1529 1.24565 10.1086C1.13699 10.0642 1.02057 10.042 0.903218 10.0432C0.78522 10.0418 0.668103 10.0637 0.558648 10.1078C0.449194 10.1519 0.349578 10.2173 0.265571 10.3002C0.181564 10.3831 0.114835 10.4818 0.0692484 10.5906C0.0236622 10.6995 0.000124878 10.8163 0 10.9343V13.3454C0 18.0141 3.07662 21.2691 7.60284 21.6492V24.4172H3.19623Z" fill="#555555"/>
</svg>
