<svg width="27" height="28" viewBox="0 0 27 28" fill="none" xmlns="http://www.w3.org/2000/svg">
<path d="M10.5589 26.5H16.4412M13.5001 2.97059V1.5M20.853 5.91176L22.3236 4.44118M6.14712 5.91176L4.67653 4.44118M20.853 19.1471L22.3236 20.6176M6.14712 19.1471L4.67653 20.6176M3.20594 11.7941H1.73535M25.2648 11.7941H23.7942M13.5001 6.64706C14.9932 6.64614 16.4427 7.15018 17.6131 8.07727C18.7835 9.00437 19.606 10.3 19.9469 11.7537C20.2879 13.2073 20.1272 14.7336 19.491 16.0844C18.8548 17.4351 17.7805 18.5311 16.4427 19.1941L16.4412 20.6176C16.4412 21.3977 16.1314 22.1458 15.5798 22.6974C15.0282 23.2489 14.2801 23.5588 13.5001 23.5588C12.72 23.5588 11.9719 23.2489 11.4203 22.6974C10.8688 22.1458 10.5589 21.3977 10.5589 20.6176V19.1941C9.22117 18.5312 8.14695 17.4353 7.51074 16.0847C6.87454 14.7341 6.71374 13.208 7.05448 11.7544C7.39521 10.3008 8.21746 9.00517 9.38761 8.07796C10.5578 7.15075 12.0071 6.64648 13.5001 6.64706Z" stroke="#303030" stroke-width="2.38095" stroke-linecap="round" stroke-linejoin="round"/>
</svg>
