<svg width="23" height="28" viewBox="0 0 23 28" fill="none" xmlns="http://www.w3.org/2000/svg">
<path d="M7.33333 4.27777H4.55555C3.81884 4.27777 3.1123 4.57043 2.59136 5.09136C2.07043 5.6123 1.77777 6.31884 1.77777 7.05555V23.7222C1.77777 24.4589 2.07043 25.1655 2.59136 25.6864C3.1123 26.2073 3.81884 26.5 4.55555 26.5H18.4444C19.1812 26.5 19.8877 26.2073 20.4086 25.6864C20.9296 25.1655 21.2222 24.4589 21.2222 23.7222V7.05555C21.2222 6.31884 20.9296 5.6123 20.4086 5.09136C19.8877 4.57043 19.1812 4.27777 18.4444 4.27777H15.6667" stroke="#303030" stroke-width="2" stroke-linecap="round" stroke-linejoin="round"/>
<path d="M7.33331 14H15.6666M7.33331 19.5556H15.6666M7.33331 4.27778C7.33331 3.54107 7.62597 2.83453 8.14691 2.31359C8.66784 1.79266 9.37438 1.5 10.1111 1.5H12.8889C13.6256 1.5 14.3321 1.79266 14.8531 2.31359C15.374 2.83453 15.6666 3.54107 15.6666 4.27778C15.6666 5.01449 15.374 5.72103 14.8531 6.24196C14.3321 6.7629 13.6256 7.05556 12.8889 7.05556H10.1111C9.37438 7.05556 8.66784 6.7629 8.14691 6.24196C7.62597 5.72103 7.33331 5.01449 7.33331 4.27778Z" stroke="#303030" stroke-width="2" stroke-linecap="round" stroke-linejoin="round"/>
</svg>
