<svg width="23" height="28" viewBox="0 0 23 28" fill="none" xmlns="http://www.w3.org/2000/svg">
<path d="M7.33339 4.27777H4.55561C3.8189 4.27777 3.11236 4.57043 2.59142 5.09136C2.07049 5.6123 1.77783 6.31884 1.77783 7.05555V23.7222C1.77783 24.4589 2.07049 25.1655 2.59142 25.6864C3.11236 26.2073 3.8189 26.5 4.55561 26.5H18.4445C19.1812 26.5 19.8878 26.2073 20.4087 25.6864C20.9296 25.1655 21.2223 24.4589 21.2223 23.7222V7.05555C21.2223 6.31884 20.9296 5.6123 20.4087 5.09136C19.8878 4.57043 19.1812 4.27777 18.4445 4.27777H15.6667" stroke="#303030" stroke-width="2" stroke-linecap="round" stroke-linejoin="round"/>
<path d="M7.3335 14H15.6668M7.3335 19.5556H15.6668M7.3335 4.27778C7.3335 3.54107 7.62615 2.83453 8.14709 2.31359C8.66802 1.79266 9.37456 1.5 10.1113 1.5H12.8891C13.6258 1.5 14.3323 1.79266 14.8532 2.31359C15.3742 2.83453 15.6668 3.54107 15.6668 4.27778C15.6668 5.01449 15.3742 5.72103 14.8532 6.24196C14.3323 6.7629 13.6258 7.05556 12.8891 7.05556H10.1113C9.37456 7.05556 8.66802 6.7629 8.14709 6.24196C7.62615 5.72103 7.3335 5.01449 7.3335 4.27778Z" stroke="#303030" stroke-width="2" stroke-linecap="round" stroke-linejoin="round"/>
</svg>
