<svg width="21" height="25" viewBox="0 0 21 25" fill="none" xmlns="http://www.w3.org/2000/svg">
<path d="M13.6875 1.875H4.125C3.56141 1.875 3.02091 2.09888 2.6224 2.4974C2.22388 2.89591 2 3.43641 2 4V21C2 21.5636 2.22388 22.1041 2.6224 22.5026C3.02091 22.9011 3.56141 23.125 4.125 23.125H16.875C17.4386 23.125 17.9791 22.9011 18.3776 22.5026C18.7761 22.1041 19 21.5636 19 21V7.1875L13.6875 1.875Z" stroke="#555555" stroke-width="2.5" stroke-linecap="round" stroke-linejoin="round"/>
<path d="M12.625 1.875V6.125C12.625 6.68859 12.8489 7.22909 13.2474 7.6276C13.6459 8.02612 14.1864 8.25 14.75 8.25H19M7.3125 15.6875H13.6875M10.5 18.875V12.5" stroke="#555555" stroke-width="2.5" stroke-linecap="round" stroke-linejoin="round"/>
</svg>
