<svg width="20" height="21" viewBox="0 0 20 21" fill="none" xmlns="http://www.w3.org/2000/svg">
<rect y="0.5" width="20" height="20" rx="5" fill="#CB4154"/>
<path d="M3.86626 4.36626C3.9822 4.25015 4.11989 4.15804 4.27146 4.09519C4.42303 4.03235 4.58551 4 4.74959 4C4.91367 4 5.07615 4.03235 5.22772 4.09519C5.37929 4.15804 5.51698 4.25015 5.63292 4.36626L10.1663 8.89792L14.6996 4.36626C14.8156 4.25026 14.9533 4.15824 15.1049 4.09546C15.2564 4.03268 15.4189 4.00037 15.5829 4.00037C15.747 4.00037 15.9094 4.03268 16.061 4.09546C16.2125 4.15824 16.3503 4.25026 16.4663 4.36626C16.5823 4.48226 16.6743 4.61997 16.7371 4.77153C16.7998 4.9231 16.8321 5.08554 16.8321 5.24959C16.8321 5.41364 16.7998 5.57608 16.7371 5.72765C16.6743 5.87921 16.5823 6.01692 16.4663 6.13292L11.9346 10.6663L16.4663 15.1996C16.7005 15.4339 16.8321 15.7516 16.8321 16.0829C16.8321 16.4142 16.7005 16.732 16.4663 16.9663C16.232 17.2005 15.9142 17.3321 15.5829 17.3321C15.2516 17.3321 14.9339 17.2005 14.6996 16.9663L10.1663 12.4346L5.63292 16.9663C5.39865 17.2005 5.0809 17.3321 4.74959 17.3321C4.41828 17.3321 4.10053 17.2005 3.86626 16.9663C3.63198 16.732 3.50037 16.4142 3.50037 16.0829C3.50037 15.7516 3.63198 15.4339 3.86626 15.1996L8.39792 10.6663L3.86626 6.13292C3.75015 6.01698 3.65804 5.87929 3.59519 5.72772C3.53235 5.57615 3.5 5.41367 3.5 5.24959C3.5 5.08551 3.53235 4.92303 3.59519 4.77146C3.65804 4.61989 3.75015 4.4822 3.86626 4.36626Z" fill="white"/>
</svg>
