<svg width="50" height="50" viewBox="0 0 50 50" fill="none" xmlns="http://www.w3.org/2000/svg">
<rect width="50" height="50" rx="25" fill="white"/>
<path d="M35.9375 25C37.1807 25 38.373 25.4939 39.2521 26.3729C40.1311 27.252 40.625 28.4443 40.625 29.6875V31.25C40.625 37.4094 34.8125 43.75 25 43.75C15.1875 43.75 9.375 37.4094 9.375 31.25V29.6875C9.375 28.4443 9.86886 27.252 10.7479 26.3729C11.627 25.4939 12.8193 25 14.0625 25H35.9375ZM25 4.6875C27.2792 4.6875 29.4651 5.59291 31.0767 7.20455C32.6883 8.81619 33.5938 11.002 33.5938 13.2812C33.5938 15.5605 32.6883 17.7463 31.0767 19.3579C29.4651 20.9696 27.2792 21.875 25 21.875C22.7208 21.875 20.5349 20.9696 18.9233 19.3579C17.3117 17.7463 16.4062 15.5605 16.4062 13.2812C16.4062 11.002 17.3117 8.81619 18.9233 7.20455C20.5349 5.59291 22.7208 4.6875 25 4.6875Z" fill="#303030"/>
</svg>
