<svg width="27" height="28" viewBox="0 0 27 28" fill="none" xmlns="http://www.w3.org/2000/svg">
<path d="M10.5588 26.5H16.4412M13.5 2.97059V1.5M20.8529 5.91176L22.3235 4.44118M6.14706 5.91176L4.67647 4.44118M20.8529 19.1471L22.3235 20.6176M6.14706 19.1471L4.67647 20.6176M3.20588 11.7941H1.73529M25.2647 11.7941H23.7941M13.5 6.64706C14.9931 6.64614 16.4426 7.15018 17.613 8.07727C18.7835 9.00437 19.606 10.3 19.9469 11.7537C20.2878 13.2073 20.1271 14.7336 19.4909 16.0844C18.8548 17.4351 17.7805 18.5311 16.4426 19.1941L16.4412 20.6176C16.4412 21.3977 16.1313 22.1458 15.5797 22.6974C15.0281 23.2489 14.28 23.5588 13.5 23.5588C12.7199 23.5588 11.9718 23.2489 11.4203 22.6974C10.8687 22.1458 10.5588 21.3977 10.5588 20.6176V19.1941C9.22111 18.5312 8.14689 17.4353 7.51068 16.0847C6.87448 14.7341 6.71368 13.208 7.05442 11.7544C7.39515 10.3008 8.2174 9.00517 9.38755 8.07796C10.5577 7.15075 12.007 6.64648 13.5 6.64706Z" stroke="#303030" stroke-width="2.38095" stroke-linecap="round" stroke-linejoin="round"/>
</svg>
