<svg width="20" height="20" viewBox="0 0 20 20" fill="none" xmlns="http://www.w3.org/2000/svg">
<path d="M6.4321 13.5743L1.2561 18.7503M15.9421 4.07629L18.3841 6.51829C18.5097 6.64313 18.6065 6.7938 18.668 6.95984C18.7295 7.12589 18.7541 7.30332 18.7401 7.47983C18.7261 7.65633 18.6739 7.82768 18.587 7.98197C18.5002 8.13625 18.3808 8.26979 18.2371 8.37329L16.4801 8.60529C16.1271 8.65354 15.7982 8.81168 15.5401 9.05729C14.8201 9.75329 14.0871 10.4853 12.8661 11.6943C12.6561 11.9063 12.5081 12.1723 12.4391 12.4633L11.4991 16.2353C11.4199 16.4172 11.2976 16.577 11.1426 16.701C10.9877 16.8249 10.8049 16.9092 10.6101 16.9466C10.4152 16.9839 10.2142 16.9731 10.0245 16.9152C9.8347 16.8573 9.66192 16.754 9.5211 16.6143L6.4811 13.5623L3.4291 10.5223C3.28958 10.3814 3.18648 10.2086 3.12872 10.0189C3.07096 9.82915 3.06028 9.62823 3.0976 9.43346C3.13491 9.23869 3.21911 9.05595 3.34291 8.90102C3.4667 8.7461 3.62637 8.62366 3.8081 8.54429L7.5551 7.58029C7.84445 7.50014 8.10915 7.34888 8.3251 7.14029C9.7041 5.78529 10.2051 5.28529 10.9851 4.44229C11.2181 4.19229 11.3681 3.87729 11.4131 3.53929L11.6451 1.75629C11.7488 1.61268 11.8825 1.49335 12.0369 1.40657C12.1913 1.31979 12.3627 1.26765 12.5393 1.25376C12.7159 1.23987 12.8934 1.26456 13.0595 1.32613C13.2255 1.38769 13.3762 1.48466 13.5011 1.61029L15.9421 4.07629Z" stroke="black" stroke-width="1.5" stroke-linecap="round" stroke-linejoin="round"/>
</svg>
