<svg width="6" height="8" viewBox="0 0 6 8" fill="none" xmlns="http://www.w3.org/2000/svg">
<path d="M6 0.571429C6 0.465308 5.96897 0.361283 5.91039 0.271011C5.85181 0.180739 5.76799 0.107786 5.66833 0.0603275C5.56866 0.0128687 5.45709 -0.00722103 5.34612 0.00230924C5.23514 0.0118395 5.12914 0.0506132 5.04 0.114286L0.24 3.54286C0.165482 3.59608 0.105 3.6651 0.0633436 3.74445C0.021687 3.8238 0 3.91129 0 4C0 4.08871 0.021687 4.1762 0.0633436 4.25555C0.105 4.3349 0.165482 4.40392 0.24 4.45714L5.04 7.88571C5.12914 7.94939 5.23514 7.98816 5.34612 7.99769C5.45709 8.00722 5.56866 7.98713 5.66833 7.93967C5.76799 7.89221 5.85181 7.81926 5.91039 7.72899C5.96897 7.63872 6 7.53469 6 7.42857V0.571429Z" fill="#CCCCCC"/>
</svg>
