<svg width="31" height="30" viewBox="0 0 31 30" fill="none" xmlns="http://www.w3.org/2000/svg">
<path d="M15.5 2.14286C8.39965 2.14286 2.64287 7.89964 2.64287 15C2.64287 17.3196 3.25572 19.4925 4.32822 21.3696C4.39911 21.4935 4.44454 21.6303 4.46184 21.772C4.47913 21.9136 4.46795 22.0573 4.42894 22.1946L2.88715 27.615L8.30965 26.0721C8.44694 26.0331 8.59064 26.0219 8.73232 26.0392C8.87399 26.0565 9.01078 26.102 9.13465 26.1728C11.0731 27.28 13.2676 27.8607 15.5 27.8571C22.6014 27.8571 28.3571 22.1003 28.3571 15C28.3571 7.89964 22.6014 2.14286 15.5 2.14286ZM0.500011 15C0.500011 6.71571 7.21572 0 15.5 0C23.7843 0 30.5 6.71571 30.5 15C30.5 23.2843 23.7843 30 15.5 30C12.9629 30 10.5693 29.3689 8.47144 28.2546L2.54858 29.9389C2.27331 30.0169 1.9822 30.0201 1.70532 29.948C1.42843 29.8759 1.17581 29.7312 0.973553 29.5288C0.771293 29.3264 0.626724 29.0737 0.554778 28.7968C0.482833 28.5199 0.486119 28.2288 0.564297 27.9536L2.24858 22.0318C1.0975 19.8669 0.496977 17.4519 0.500011 15ZM9.07144 11.7857C9.07144 11.5015 9.18432 11.229 9.38525 11.0281C9.58618 10.8272 9.8587 10.7143 10.1429 10.7143H20.8571C21.1413 10.7143 21.4138 10.8272 21.6148 11.0281C21.8157 11.229 21.9286 11.5015 21.9286 11.7857C21.9286 12.0699 21.8157 12.3424 21.6148 12.5433C21.4138 12.7443 21.1413 12.8571 20.8571 12.8571H10.1429C9.8587 12.8571 9.58618 12.7443 9.38525 12.5433C9.18432 12.3424 9.07144 12.0699 9.07144 11.7857ZM10.1429 17.1428C9.8587 17.1428 9.58618 17.2557 9.38525 17.4567C9.18432 17.6576 9.07144 17.9301 9.07144 18.2143C9.07144 18.4984 9.18432 18.771 9.38525 18.9719C9.58618 19.1728 9.8587 19.2857 10.1429 19.2857H16.5714C16.8556 19.2857 17.1281 19.1728 17.329 18.9719C17.53 18.771 17.6429 18.4984 17.6429 18.2143C17.6429 17.9301 17.53 17.6576 17.329 17.4567C17.1281 17.2557 16.8556 17.1428 16.5714 17.1428H10.1429Z" fill="#303030"/>
</svg>
