<svg width="23" height="23" viewBox="0 0 23 23" fill="none" xmlns="http://www.w3.org/2000/svg">
<path d="M10.1477 12.8515L15.3238 7.67545M20.6174 4.5181L16.2488 18.7176C15.8568 19.9908 15.6613 20.6274 15.3227 20.8378C15.1786 20.928 15.015 20.9824 14.8455 20.9965C14.6761 21.0106 14.5057 20.9841 14.3486 20.919C13.9812 20.7663 13.6821 20.1713 13.0861 18.9793L10.3197 13.4443C10.2625 13.3164 10.1935 13.1941 10.1136 13.079C10.058 13.0067 9.99336 12.9417 9.9213 12.8857C9.80989 12.8086 9.69153 12.7421 9.56775 12.687L4.02103 9.91208C2.83009 9.31607 2.23408 9.01807 2.08134 8.65064C2.01619 8.49338 1.98956 8.32283 2.00368 8.1532C2.0178 7.98357 2.07226 7.81977 2.16252 7.67545C2.37293 7.33792 3.00953 7.14139 4.28272 6.74939L18.4833 2.38081C19.4841 2.07212 19.984 1.91831 20.3226 2.04328C20.468 2.09669 20.6001 2.1811 20.7097 2.29066C20.8192 2.40022 20.9036 2.5323 20.9571 2.67774C21.081 3.01527 20.9271 3.51514 20.6195 4.5149L20.6174 4.5181Z" stroke="white" stroke-width="2.5" stroke-linecap="round" stroke-linejoin="round"/>
</svg>
