<svg width="13" height="10" viewBox="0 0 13 10" fill="none" xmlns="http://www.w3.org/2000/svg">
<path d="M5.96478 9.712C6.02441 9.80082 6.10421 9.87344 6.19729 9.92362C6.29038 9.97379 6.39396 10 6.49912 10C6.60428 10 6.70786 9.97379 6.80094 9.92362C6.89403 9.87344 6.97382 9.80082 7.03346 9.712L12.8839 1.04593C12.9516 0.945973 12.9913 0.828898 12.9987 0.707422C13.0061 0.585946 12.9809 0.464717 12.9258 0.356905C12.8708 0.249093 12.7879 0.158821 12.6863 0.0958989C12.5847 0.0329764 12.4683 -0.000190883 12.3496 8.26379e-07H0.648661C0.53025 0.000502398 0.414212 0.0340962 0.313027 0.0971694C0.211842 0.160243 0.129337 0.250409 0.0743855 0.357972C0.019434 0.465534 -0.00588502 0.586424 0.00115111 0.707639C0.00818723 0.828855 0.0473123 0.945811 0.114319 1.04593L5.96478 9.712Z" fill="black"/>
</svg>
