<svg width="23" height="29" viewBox="0 0 23 29" fill="none" xmlns="http://www.w3.org/2000/svg">
<path d="M17.125 4.15625V6.5H21.3438C21.7167 6.5 22.0744 6.64816 22.3381 6.91188C22.6018 7.1756 22.75 7.53329 22.75 7.90625C22.75 8.27921 22.6018 8.6369 22.3381 8.90062C22.0744 9.16434 21.7167 9.3125 21.3438 9.3125H1.65625C1.28329 9.3125 0.925604 9.16434 0.661881 8.90062C0.398158 8.6369 0.25 8.27921 0.25 7.90625C0.25 7.53329 0.398158 7.1756 0.661881 6.91188C0.925604 6.64816 1.28329 6.5 1.65625 6.5H5.875V4.15625C5.875 2.345 7.345 0.875 9.15625 0.875H13.8438C15.655 0.875 17.125 2.345 17.125 4.15625ZM4.93 13.3906L6.1675 25.7656C6.17913 25.8813 6.23335 25.9886 6.31963 26.0665C6.40591 26.1445 6.51809 26.1876 6.63438 26.1875H16.3656C16.4819 26.1876 16.5941 26.1445 16.6804 26.0665C16.7666 25.9886 16.8209 25.8813 16.8325 25.7656L18.07 13.3906C18.1165 13.0274 18.3028 12.6966 18.5894 12.4686C18.876 12.2407 19.2402 12.1335 19.6046 12.1699C19.969 12.2063 20.3048 12.3834 20.5407 12.6635C20.7765 12.9437 20.8938 13.3047 20.8675 13.67L19.63 26.045C19.5499 26.8549 19.1713 27.6061 18.5679 28.1523C17.9646 28.6985 17.1795 29.0007 16.3656 29H6.63438C5.82102 28.9999 5.03668 28.6977 4.43351 28.152C3.83035 27.6064 3.45134 26.8562 3.37 26.0469L2.1325 13.6719C2.10902 13.4857 2.12304 13.2967 2.17373 13.116C2.22443 12.9353 2.31078 12.7666 2.42769 12.6198C2.5446 12.473 2.68971 12.3511 2.85447 12.2613C3.01923 12.1714 3.20031 12.1155 3.38703 12.0967C3.57375 12.0779 3.76234 12.0967 3.94168 12.152C4.12103 12.2072 4.2875 12.2978 4.43129 12.4184C4.57509 12.539 4.69329 12.6871 4.77894 12.8541C4.86459 13.0211 4.91595 13.2035 4.93 13.3906ZM8.6875 4.15625V6.5H14.3125V4.15625C14.3125 4.03193 14.2631 3.9127 14.1752 3.82479C14.0873 3.73689 13.9681 3.6875 13.8438 3.6875H9.15625C9.03193 3.6875 8.9127 3.73689 8.82479 3.82479C8.73689 3.9127 8.6875 4.03193 8.6875 4.15625Z" fill="black"/>
</svg>
