<svg width="25" height="25" viewBox="0 0 25 25" fill="none" xmlns="http://www.w3.org/2000/svg">
<path d="M18.3317 16.1227H17.1733L16.7627 15.727C17.6791 14.663 18.3488 13.4097 18.724 12.0568C19.0992 10.7039 19.1705 9.28486 18.9329 7.90119C18.2437 3.82708 14.8417 0.573658 10.7359 0.0753852C9.29245 -0.107121 7.82633 0.0428093 6.44976 0.513702C5.07319 0.984595 3.82265 1.76397 2.79383 2.79219C1.765 3.82041 0.985173 5.07022 0.514004 6.44598C0.0428345 7.82175 -0.107183 9.287 0.0754294 10.7296C0.573994 14.833 3.82933 18.233 7.90583 18.9218C9.2903 19.1593 10.7102 19.088 12.0639 18.713C13.4176 18.3381 14.6716 17.6687 15.7362 16.7529L16.1321 17.1632V18.321L22.3642 24.5494C22.9654 25.1502 23.9479 25.1502 24.5491 24.5494C25.1503 23.9485 25.1503 22.9666 24.5491 22.3658L18.3317 16.1227ZM9.5335 16.1227C5.88224 16.1227 2.93484 13.177 2.93484 9.52791C2.93484 5.87879 5.88224 2.93312 9.5335 2.93312C13.1847 2.93312 16.1321 5.87879 16.1321 9.52791C16.1321 13.177 13.1847 16.1227 9.5335 16.1227Z" fill="#DDDDDD"/>
</svg>
