<svg width="25" height="25" viewBox="0 0 25 25" fill="none" xmlns="http://www.w3.org/2000/svg">
<path fill-rule="evenodd" clip-rule="evenodd" d="M14.98 0.6775C15.0888 0.88875 15.1163 1.16 15.17 1.7025C15.2725 2.7275 15.3237 3.24 15.5387 3.5225C15.6727 3.6979 15.8507 3.83471 16.0547 3.91902C16.2586 4.00333 16.4813 4.03213 16.7 4.0025C17.05 3.95625 17.45 3.63 18.2475 2.9775C18.6687 2.63125 18.88 2.45875 19.1063 2.38625C19.3944 2.29417 19.7062 2.30972 19.9837 2.43C20.2025 2.525 20.3962 2.7175 20.78 3.1025L21.8975 4.22C22.2825 4.605 22.475 4.7975 22.57 5.01625C22.6903 5.29382 22.7058 5.60559 22.6138 5.89375C22.5413 6.12 22.3687 6.33125 22.0238 6.7525C21.37 7.55125 21.0438 7.95 20.9963 8.30125C20.967 8.51987 20.9961 8.74234 21.0806 8.94608C21.1651 9.14981 21.3021 9.32755 21.4775 9.46125C21.7587 9.67625 22.2725 9.7275 23.2987 9.83C23.84 9.88375 24.1112 9.91125 24.3237 10.02C24.5918 10.159 24.8005 10.3903 24.9113 10.6712C25 10.8925 25 11.165 25 11.71V13.29C25 13.835 25 14.1075 24.9125 14.3275C24.8014 14.6093 24.5917 14.8412 24.3225 14.98C24.1112 15.0888 23.84 15.1163 23.2975 15.17C22.2725 15.2725 21.76 15.3237 21.4775 15.5387C21.3021 15.6727 21.1653 15.8507 21.081 16.0547C20.9967 16.2586 20.9679 16.4813 20.9975 16.7C21.045 17.05 21.3713 17.45 22.0238 18.2475C22.3687 18.6687 22.5413 18.8787 22.6138 19.1063C22.7058 19.3944 22.6903 19.7062 22.57 19.9837C22.475 20.2025 22.2825 20.395 21.8975 20.78L20.78 21.8962C20.395 22.2825 20.2025 22.475 19.9837 22.5688C19.7062 22.689 19.3944 22.7046 19.1063 22.6125C18.88 22.54 18.6687 22.3675 18.2475 22.0225C17.4487 21.37 17.05 21.0438 16.7 20.9975C16.4813 20.9679 16.2586 20.9967 16.0547 21.081C15.8507 21.1653 15.6727 21.3021 15.5387 21.4775C15.3237 21.7587 15.2725 22.2712 15.17 23.2975C15.1163 23.84 15.0888 24.1112 14.98 24.3225C14.8415 24.5915 14.6101 24.8011 14.3288 24.9125C14.1075 25 13.835 25 13.29 25H11.71C11.165 25 10.8925 25 10.6725 24.9125C10.3907 24.8014 10.1588 24.5917 10.02 24.3225C9.91125 24.1112 9.88375 23.84 9.83 23.2975C9.7275 22.2725 9.67625 21.76 9.46125 21.4775C9.32741 21.3023 9.1496 21.1656 8.94588 21.0813C8.74216 20.997 8.51976 20.9681 8.30125 20.9975C7.95 21.0438 7.55125 21.37 6.7525 22.0225C6.33125 22.3687 6.12 22.5413 5.89375 22.6138C5.60559 22.7058 5.29382 22.6903 5.01625 22.57C4.7975 22.475 4.60375 22.2825 4.22 21.8975L3.1025 20.78C2.7175 20.395 2.525 20.2025 2.43 19.9837C2.30972 19.7062 2.29417 19.3944 2.38625 19.1063C2.45875 18.88 2.63125 18.6687 2.97625 18.2475C3.63 17.4487 3.95625 17.05 4.0025 16.6987C4.0319 16.4802 4.00298 16.2578 3.91868 16.0541C3.83439 15.8504 3.6977 15.6726 3.5225 15.5387C3.24125 15.3237 2.7275 15.2725 1.70125 15.17C1.16 15.1163 0.88875 15.0888 0.67625 14.98C0.408184 14.841 0.199495 14.6097 0.0887501 14.3288C1.19209e-07 14.1075 0 13.835 0 13.29V11.71C0 11.165 -8.19564e-08 10.8925 0.0874999 10.6725C0.198609 10.3907 0.408269 10.1588 0.6775 10.02C0.88875 9.91125 1.16 9.88375 1.7025 9.83C2.7275 9.7275 3.24125 9.67625 3.5225 9.46125C3.69793 9.32755 3.83486 9.14981 3.91938 8.94608C4.0039 8.74234 4.03301 8.51987 4.00375 8.30125C3.95625 7.95 3.62875 7.55125 2.97625 6.75125C2.63125 6.33 2.45875 6.12 2.38625 5.8925C2.29417 5.60434 2.30972 5.29257 2.43 5.015C2.525 4.7975 2.7175 4.60375 3.1025 4.21875L4.22 3.1025C4.605 2.7175 4.7975 2.52375 5.01625 2.43C5.29382 2.30972 5.60559 2.29417 5.89375 2.38625C6.12 2.45875 6.33125 2.63125 6.7525 2.97625C7.55125 3.62875 7.95 3.955 8.3 4.0025C8.51902 4.03222 8.742 4.00334 8.94621 3.9188C9.15043 3.83426 9.32858 3.69708 9.4625 3.52125C9.675 3.24 9.7275 2.7275 9.83 1.70125C9.88375 1.16 9.91125 0.88875 10.02 0.67625C10.1588 0.407714 10.3901 0.198554 10.6712 0.0874999C10.8925 -8.19564e-08 11.165 0 11.71 0H13.29C13.835 0 14.1075 -8.19564e-08 14.3275 0.0874999C14.6093 0.198609 14.8412 0.408269 14.98 0.6775ZM12.5 17.5C13.8261 17.5 15.0979 16.9732 16.0355 16.0355C16.9732 15.0979 17.5 13.8261 17.5 12.5C17.5 11.1739 16.9732 9.90215 16.0355 8.96447C15.0979 8.02678 13.8261 7.5 12.5 7.5C11.1739 7.5 9.90215 8.02678 8.96447 8.96447C8.02678 9.90215 7.5 11.1739 7.5 12.5C7.5 13.8261 8.02678 15.0979 8.96447 16.0355C9.90215 16.9732 11.1739 17.5 12.5 17.5Z" fill="#2E4374"/>
</svg>
