<svg width="29" height="28" viewBox="0 0 29 28" fill="none" xmlns="http://www.w3.org/2000/svg">
<path d="M15.1517 1.95272C14.9918 1.80501 14.8002 1.68866 14.5888 1.61086C14.3773 1.53306 14.1505 1.49547 13.9223 1.50043C13.6942 1.50539 13.4696 1.55279 13.2625 1.63969C13.0554 1.72659 12.8702 1.85115 12.7183 2.00563L2.42333 12.4652C2.15067 12.7423 1.99998 13.1006 2 13.472V24.9883C2 25.3892 2.1756 25.7737 2.48816 26.0572C2.80072 26.3407 3.22464 26.5 3.66667 26.5H8.66667C9.10869 26.5 9.53262 26.3407 9.84518 26.0572C10.1577 25.7737 10.3333 25.3892 10.3333 24.9883V19.6973C10.3333 19.2963 10.5089 18.9118 10.8215 18.6283C11.134 18.3448 11.558 18.1855 12 18.1855H17C17.442 18.1855 17.8659 18.3448 18.1785 18.6283C18.4911 18.9118 18.6667 19.2963 18.6667 19.6973V24.9883C18.6667 25.3892 18.8423 25.7737 19.1548 26.0572C19.4674 26.3407 19.8913 26.5 20.3333 26.5H25.3333C25.7754 26.5 26.1993 26.3407 26.5118 26.0572C26.8244 25.7737 27 25.3892 27 24.9883V13.5128C26.9995 13.1169 26.8277 12.7369 26.5217 12.4546L15.1517 1.95272Z" stroke="#444444" stroke-width="2.08333"/>
</svg>
