<svg width="25" height="26" viewBox="0 0 25 26" fill="none" xmlns="http://www.w3.org/2000/svg">
<path d="M18.3317 16.6227H17.1733L16.7627 16.227C17.6791 15.163 18.3488 13.9097 18.724 12.5568C19.0992 11.2039 19.1705 9.78486 18.9329 8.40119C18.2437 4.32708 14.8417 1.07366 10.7359 0.575385C9.29245 0.392879 7.82633 0.542809 6.44976 1.0137C5.07319 1.4846 3.82265 2.26397 2.79383 3.29219C1.765 4.32041 0.985173 5.57022 0.514004 6.94598C0.0428345 8.32175 -0.107183 9.787 0.0754294 11.2296C0.573994 15.333 3.82933 18.733 7.90583 19.4218C9.2903 19.6593 10.7102 19.588 12.0639 19.213C13.4176 18.8381 14.6716 18.1687 15.7362 17.2529L16.1321 17.6632V18.821L22.3642 25.0494C22.9654 25.6502 23.9479 25.6502 24.5491 25.0494C25.1503 24.4485 25.1503 23.4666 24.5491 22.8658L18.3317 16.6227ZM9.5335 16.6227C5.88224 16.6227 2.93484 13.677 2.93484 10.0279C2.93484 6.37879 5.88224 3.43312 9.5335 3.43312C13.1847 3.43312 16.1321 6.37879 16.1321 10.0279C16.1321 13.677 13.1847 16.6227 9.5335 16.6227Z" fill="#DDDDDD"/>
</svg>
