<svg width="6" height="8" viewBox="0 0 6 8" fill="none" xmlns="http://www.w3.org/2000/svg">
<path d="M0.214407 7.95468C0.279115 7.98834 0.351768 8.00374 0.424567 7.99923C0.497365 7.99472 0.567561 7.97047 0.62762 7.92908L5.82779 4.32889C5.88093 4.29208 5.92435 4.24293 5.95434 4.18567C5.98433 4.1284 6 4.06472 6 4.00008C6 3.93543 5.98433 3.87175 5.95434 3.81448C5.92435 3.75722 5.88093 3.70807 5.82779 3.67126L0.62762 0.0710688C0.567608 0.0295437 0.49738 0.00522738 0.424539 0.000752745C0.351699 -0.00372189 0.279022 0.0118157 0.214379 0.0456832C0.149735 0.0795506 0.0955883 0.130457 0.0578007 0.192891C0.020013 0.255325 2.46341e-05 0.326907 5.43342e-09 0.399886V7.60026C-1.20273e-05 7.67328 0.0199619 7.74491 0.0577568 7.80739C0.0955517 7.86986 0.149726 7.9208 0.214407 7.95468Z" fill="#222222"/>
</svg>
