<svg width="64" height="80" viewBox="0 0 64 80" fill="none" xmlns="http://www.w3.org/2000/svg">
<path d="M53.875 41.5625C56.3614 41.5625 58.746 42.5502 60.5041 44.3084C62.2623 46.0665 63.25 48.4511 63.25 50.9375V54.0625C63.25 66.3812 51.625 79.0625 32 79.0625C12.375 79.0625 0.75 66.3812 0.75 54.0625V50.9375C0.75 48.4511 1.73772 46.0665 3.49587 44.3084C5.25403 42.5502 7.6386 41.5625 10.125 41.5625H53.875ZM32 0.9375C36.5584 0.9375 40.9301 2.74832 44.1534 5.9716C47.3767 9.19488 49.1875 13.5666 49.1875 18.125C49.1875 22.6834 47.3767 27.0551 44.1534 30.2784C40.9301 33.5017 36.5584 35.3125 32 35.3125C27.4416 35.3125 23.0699 33.5017 19.8466 30.2784C16.6233 27.0551 14.8125 22.6834 14.8125 18.125C14.8125 13.5666 16.6233 9.19488 19.8466 5.9716C23.0699 2.74832 27.4416 0.9375 32 0.9375Z" fill="black"/>
</svg>
